# xmcd
#
# Track frame offsets: 
#        150
#        15365
#        35364
#        56327
#        76093
#        96268
#        107145
#        130277
#        149253
#        163901
#        184756
#        203023
#        225003
#        247077
#        266012
#        276887
#        298057
#        309590
#        336364
#
# Disc length: 4743 seconds
#
# Revision: 0
# Processed by: cddbd v1.5.2PL0 Copyright (c) Steve Scherf et al.
# Submitted via: ExactAudioCopyFreeDBPlugin 1.0
#
DISCID=0b128513
DTITLE=Lightnin' Hopkins - The Verve Sessions
DYEAR=2014
DGENRE=Blues
TTITLE0=Goin' To Louisiana
TTITLE1=Down Home Blues
TTITLE2=Lightnin' Blues
TTITLE3=One Mor Time
TTITLE4=Cryin' the Blues
TTITLE5=Back To Arkansas
TTITLE6=Blues In The Rain
TTITLE7=Make It Move
TTITLE8=Keep Movin' On
TTITLE9=That's My Story
TTITLE10=Shining Moon
TTITLE11=Schake It Baby
TTITLE12=Goin' Back Home
TTITLE13=Good Times
TTITLE14=What Did I Say
TTITLE15=Don't Wake Me
TTITLE16=Talk Of The Town
TTITLE17=Cotton
TTITLE18=Guitar Lightnin'
EXTD=
EXTT0=
EXTT1=
EXTT2=
EXTT3=
EXTT4=
EXTT5=
EXTT6=
EXTT7=
EXTT8=
EXTT9=
EXTT10=
EXTT11=
EXTT12=
EXTT13=
EXTT14=
EXTT15=
EXTT16=
EXTT17=
EXTT18=
PLAYORDER=
